# xmcd
#
# Track frame offsets: 
#        150
#        18056
#        49401
#        69518
#        89494
#        115313
#        142629
#        159491
#        177534
#        198332
#        216522
#
# Disc length: 3182 seconds
#
# Revision: 2
# Processed by: cddbd v1.5.2PL0 Copyright (c) Steve Scherf et al.
# Submitted via: ExactAudioCopy v1.0b3
#
DISCID=9a0c6c0b
DTITLE=JJ Grey and Mofro - Georgia warhorse
DYEAR=2010
DGENRE=Soul
TTITLE0=Diyo Dayo
TTITLE1=King Hummingbird
TTITLE2=The sweetest thing
TTITLE3=All
TTITLE4=Georgia warhorse
TTITLE5=Gotta know
TTITLE6=Hide and seek
TTITLE7=Beautiful world
TTITLE8=Slow, hot and sweaty
TTITLE9=The hottest spot in hell
TTITLE10=Lullaby
EXTD=
EXTT0=
EXTT1=
EXTT2=
EXTT3=
EXTT4=
EXTT5=
EXTT6=
EXTT7=
EXTT8=
EXTT9=
EXTT10=
PLAYORDER=
